<svg xmlns="http://www.w3.org/2000/svg" width="254" height="66.993" viewBox="0 0 254 66.993">
  <g id="ES" transform="translate(-79.84 -456.41)">
    <g id="ะก" transform="translate(79.84 456.41)">
      <path id="Path_436" data-name="Path 436" d="M309.423,500.422a14.693,14.693,0,0,0-2.8-3.1,27.416,27.416,0,0,0-2.18-1.664l-.171-.121,11.351-36.092a33.789,33.789,0,0,0-39.572,48.634l-6.755,7.783.489.439a30.607,30.607,0,0,0,10.341,6.331,35.684,35.684,0,0,0,11.646,1.838c.775,0,1.55-.03,2.316-.085a1.914,1.914,0,0,0,.295,0c.253-.015.966-.112,1.626-.215a19.1,19.1,0,0,0,9.872-4.245c3.494-3.046,5.268-7.218,5.268-12.391a19.152,19.152,0,0,0-.342-3.771,9.724,9.724,0,0,0-1.387-3.341Zm-28.872,20.947a28.749,28.749,0,0,1-9.392-5.627l5.132-5.913a34.581,34.581,0,0,0,15.169,13.3,34.2,34.2,0,0,1-10.9-1.765ZM277.1,508.562l2.263-2.61a13.8,13.8,0,0,0,10.435,4.675,6.177,6.177,0,0,0,3.78-.854,2.652,2.652,0,0,0,1.117-2.109,3.322,3.322,0,0,0-.625-1.909,8.14,8.14,0,0,0-2.51-2l-8.909-5.332c-3.382-2.018-5.739-4.033-7.012-5.986a12.135,12.135,0,0,1-1.9-6.747c0-4.935,1.632-8.856,4.849-11.661s7.66-4.251,13.181-4.251A20.35,20.35,0,0,1,301.029,472a34.316,34.316,0,0,1,7.418,5.008l-8.658,9.221a16.582,16.582,0,0,0-3.612-2.469,10.5,10.5,0,0,0-4.84-1.237c-1.744,0-2.7.9-2.7,2.531a3.286,3.286,0,0,0,.742,1.882,5.788,5.788,0,0,0,1.582,1.52l10.441,6.555h0c.675.409,1.311.816,1.9,1.214L293.664,522.6A33.09,33.09,0,0,1,277.1,508.562ZM304.992,518.9a17.2,17.2,0,0,1-8.579,3.859l8.013-25.481c.495.365.943.719,1.335,1.055a13.37,13.37,0,0,1,2.54,2.808,8.4,8.4,0,0,1,1.178,2.87,17.791,17.791,0,0,1,.315,3.506C309.8,512.292,308.182,516.122,304.992,518.9Z" transform="translate(-213.483 -457.48)" fill="#0071bc"/>
      <path id="Path_437" data-name="Path 437" d="M374.4,598.252a8.4,8.4,0,0,0-1.178-2.87,13.382,13.382,0,0,0-2.539-2.808c-.392-.336-.84-.689-1.335-1.055L361.33,617a17.216,17.216,0,0,0,8.579-3.857c3.191-2.784,4.811-6.614,4.811-11.384A17.781,17.781,0,0,0,374.4,598.252Z" transform="translate(-278.4 -551.715)" fill="#fff"/>
      <path id="Path_438" data-name="Path 438" d="M285.021,645.647a34.2,34.2,0,0,0,10.9,1.768,34.58,34.58,0,0,1-15.169-13.3l-5.132,5.913A28.977,28.977,0,0,0,285.021,645.647Z" transform="translate(-217.942 -581.758)" fill="#fff"/>
      <path id="Path_439" data-name="Path 439" d="M312.037,523.386l-10.444-6.555a5.777,5.777,0,0,1-1.582-1.52,3.285,3.285,0,0,1-.742-1.883c0-1.632.961-2.531,2.7-2.531a10.5,10.5,0,0,1,4.84,1.237,16.582,16.582,0,0,1,3.615,2.484l8.662-9.218a34.318,34.318,0,0,0-7.418-5.008,20.355,20.355,0,0,0-9.257-2.221c-5.512,0-9.946,1.429-13.181,4.251s-4.849,6.729-4.849,11.66a12.134,12.134,0,0,0,1.9,6.747c1.273,1.953,3.633,3.965,7.012,5.986l8.909,5.333a8.182,8.182,0,0,1,2.51,2,3.32,3.32,0,0,1,.627,1.909,2.651,2.651,0,0,1-1.117,2.109,6.182,6.182,0,0,1-3.78.854,13.8,13.8,0,0,1-10.435-4.675l-2.263,2.61a33.091,33.091,0,0,0,17.733,14.468l.295.024,8.393-26.68c-.657-.448-1.376-.911-2.145-1.376Z" transform="translate(-224.123 -485.867)" fill="#3fd6ff"/>
      <path id="Path_440" data-name="Path 440" d="M123.094,495.407a33.6,33.6,0,0,0,.557-6.084h8.32l.068-13.655H120.755a33.988,33.988,0,0,0-2.587-4.773l18.207-.079-.088-14.406H100.318l-.4,1.352-.174.557L79.84,521.6a33.794,33.794,0,0,0,36.965-11.89h19.477l-.088-14.3Z" transform="translate(-79.84 -456.41)" fill="#0071bc"/>
      <path id="Path_441" data-name="Path 441" d="M231.661,537.293l.053-10.983H223.05a34.246,34.246,0,0,1,2.266,10.983Z" transform="translate(-180.859 -505.717)" fill="#fff"/>
      <path id="Path_442" data-name="Path 442" d="M193.384,472.943l-.071-11.363H162.83A34.366,34.366,0,0,1,176.6,473.014Z" transform="translate(-138.38 -460.057)" fill="#fff"/>
      <path id="Path_443" data-name="Path 443" d="M211.34,604.941H227.7l-.071-11.631h-11.36c-.218.984-.48,1.968-.784,2.928A34.465,34.465,0,0,1,211.34,604.941Z" transform="translate(-172.599 -552.978)" fill="#fff"/>
      <path id="Path_444" data-name="Path 444" d="M171.445,502.575c.295-.925.545-1.871.754-2.822h-6.682v-8.3h7.457a33.147,33.147,0,0,0-2.445-11.437h-5.008v-7.071h1.072A32.995,32.995,0,0,0,150.41,461v50.837h16.451A33.32,33.32,0,0,0,171.445,502.575Z" transform="translate(-129.619 -459.648)" fill="#3fd6ff"/>
      <path id="Path_445" data-name="Path 445" d="M458.731,468.39h-7.737v7.159h8.62v2.157H448.42V457.82h10.747v2.157h-8.173v6.29h7.737Z" transform="translate(-339.833 -457.404)" fill="#fff"/>
      <path id="Path_446" data-name="Path 446" d="M497.168,479.944c0-1.473-.029-2.687-.118-3.868h2.3l.147,2.357h.059a5.253,5.253,0,0,1,4.714-2.687c1.977,0,5.05,1.179,5.05,6.081v8.544h-2.6v-8.249c0-2.3-.857-4.222-3.306-4.222a3.692,3.692,0,0,0-3.482,2.651,3.743,3.743,0,0,0-.177,1.211v8.591h-2.6Z" transform="translate(-374.136 -470.048)" fill="#fff"/>
      <path id="Path_447" data-name="Path 447" d="M562.9,476.049c-.059,1.034-.118,2.186-.118,3.927v8.3c0,3.276-.648,5.285-2.036,6.526a7.579,7.579,0,0,1-5.2,1.711,9.231,9.231,0,0,1-4.752-1.179l.648-1.977a8.059,8.059,0,0,0,4.192,1.123c2.652,0,4.6-1.388,4.6-4.991v-1.612h-.059a5.1,5.1,0,0,1-4.546,2.392c-3.535,0-6.081-3.011-6.081-6.967,0-4.844,3.158-7.589,6.437-7.589a4.759,4.759,0,0,1,4.457,2.48h.059l.118-2.156Zm-2.684,5.639a3.8,3.8,0,0,0-3.78-3.924c-2.48,0-4.251,2.095-4.251,5.4,0,2.8,1.417,5.138,4.222,5.138a3.8,3.8,0,0,0,3.6-2.652,4.512,4.512,0,0,0,.207-1.388Z" transform="translate(-411.176 -470.024)" fill="#fff"/>
      <path id="Path_448" data-name="Path 448" d="M610.605,459.341a1.609,1.609,0,1,1-3.217,0,1.582,1.582,0,0,1,1.624-1.623,1.541,1.541,0,0,1,1.594,1.623Zm-2.893,18.3V463.356h2.6v14.288Z" transform="translate(-451.967 -457.331)" fill="#fff"/>
      <path id="Path_449" data-name="Path 449" d="M631.658,479.944c0-1.473-.029-2.687-.118-3.868h2.3l.147,2.357h.059a5.257,5.257,0,0,1,4.714-2.687c1.977,0,5.049,1.178,5.049,6.081v8.544h-2.593v-8.249c0-2.3-.857-4.222-3.306-4.222a3.691,3.691,0,0,0-3.482,2.652,3.736,3.736,0,0,0-.177,1.211v8.591h-2.6Z" transform="translate(-469.004 -470.048)" fill="#fff"/>
      <path id="Path_450" data-name="Path 450" d="M686.53,483.657c.059,3.515,2.3,4.961,4.9,4.961a9.4,9.4,0,0,0,3.954-.751l.441,1.859a11.6,11.6,0,0,1-4.752.884c-4.4,0-7.026-2.893-7.026-7.2s2.54-7.707,6.7-7.707c4.664,0,5.892,4.1,5.892,6.732a9.717,9.717,0,0,1-.089,1.211Zm7.616-1.859c.03-1.653-.678-4.222-3.6-4.222-2.628,0-3.78,2.422-3.986,4.222Z" transform="translate(-506.044 -470.017)" fill="#fff"/>
      <path id="Path_451" data-name="Path 451" d="M736.738,483.657c.059,3.515,2.3,4.961,4.9,4.961a9.394,9.394,0,0,0,3.957-.751l.442,1.859a11.6,11.6,0,0,1-4.752.884c-4.4,0-7.026-2.893-7.026-7.2s2.54-7.707,6.7-7.707c4.664,0,5.892,4.1,5.892,6.732a9.81,9.81,0,0,1-.088,1.211Zm7.618-1.859c.029-1.653-.68-4.222-3.6-4.222-2.628,0-3.78,2.422-3.986,4.222Z" transform="translate(-541.462 -470.017)" fill="#fff"/>
      <path id="Path_452" data-name="Path 452" d="M787.717,480.551c0-1.682-.029-3.129-.118-4.457h2.274l.088,2.8h.118a4.287,4.287,0,0,1,3.956-3.129,2.8,2.8,0,0,1,.74.088v2.451a3.9,3.9,0,0,0-.884-.088c-1.829,0-3.129,1.387-3.482,3.335a7.284,7.284,0,0,0-.118,1.211v7.619h-2.575Z" transform="translate(-579.088 -470.066)" fill="#fff"/>
      <path id="Path_453" data-name="Path 453" d="M823.3,459.341a1.609,1.609,0,1,1-3.217,0,1.582,1.582,0,0,1,1.624-1.623,1.541,1.541,0,0,1,1.594,1.623Zm-2.893,18.3V463.356H823v14.288Z" transform="translate(-601.997 -457.331)" fill="#fff"/>
      <path id="Path_454" data-name="Path 454" d="M844.308,479.944c0-1.473-.029-2.687-.118-3.868h2.3l.147,2.357h.059a5.256,5.256,0,0,1,4.714-2.687c1.977,0,5.05,1.178,5.05,6.081v8.544h-2.6v-8.249c0-2.3-.858-4.222-3.306-4.222a3.692,3.692,0,0,0-3.482,2.652,3.748,3.748,0,0,0-.177,1.211v8.591h-2.6Z" transform="translate(-619.006 -470.048)" fill="#fff"/>
      <path id="Path_455" data-name="Path 455" d="M910.052,476.049c-.059,1.034-.118,2.186-.118,3.927v8.3c0,3.276-.648,5.285-2.036,6.526a7.574,7.574,0,0,1-5.2,1.711,9.231,9.231,0,0,1-4.752-1.179l.648-1.977a8.058,8.058,0,0,0,4.192,1.123c2.651,0,4.6-1.388,4.6-4.991v-1.612h-.059a5.1,5.1,0,0,1-4.546,2.392c-3.535,0-6.081-3.011-6.081-6.967,0-4.844,3.158-7.589,6.437-7.589a4.76,4.76,0,0,1,4.457,2.48h.059l.118-2.156Zm-2.687,5.639a3.705,3.705,0,0,0-.147-1.178,3.742,3.742,0,0,0-3.633-2.746c-2.48,0-4.251,2.095-4.251,5.4,0,2.8,1.417,5.138,4.222,5.138a3.8,3.8,0,0,0,3.6-2.652,4.515,4.515,0,0,0,.207-1.388Z" transform="translate(-656.053 -470.024)" fill="#fff"/>
      <path id="Path_456" data-name="Path 456" d="M447.7,566.873a9.1,9.1,0,0,0,4.6,1.3c2.628,0,4.163-1.387,4.163-3.394,0-1.859-1.064-2.923-3.75-3.957-3.241-1.152-5.256-2.834-5.256-5.639,0-3.1,2.569-5.4,6.437-5.4a9.018,9.018,0,0,1,4.4.975l-.71,2.095a7.929,7.929,0,0,0-3.771-.943c-2.716,0-3.75,1.624-3.75,2.981,0,1.859,1.211,2.775,3.957,3.83,3.364,1.3,5.079,2.922,5.079,5.845,0,3.07-2.274,5.727-6.967,5.727a10.279,10.279,0,0,1-5.079-1.27Z" transform="translate(-338.867 -522.272)" fill="#fff"/>
      <path id="Path_457" data-name="Path 457" d="M510.564,576.135c0,5.285-3.662,7.589-7.115,7.589-3.868,0-6.849-2.834-6.849-7.365,0-4.781,3.129-7.589,7.085-7.589C507.8,568.785,510.564,571.766,510.564,576.135Zm-11.336.147c0,3.129,1.8,5.491,4.339,5.491,2.481,0,4.34-2.333,4.34-5.55,0-2.422-1.211-5.492-4.281-5.492s-4.387,2.834-4.387,5.55Z" transform="translate(-373.819 -535.668)" fill="#fff"/>
      <path id="Path_458" data-name="Path 458" d="M555.17,547.27h2.6v20.961h-2.6Z" transform="translate(-415.133 -520.502)" fill="#fff"/>
      <path id="Path_459" data-name="Path 459" d="M590.6,580.311c0,1.473.029,2.775.117,3.9h-2.3l-.147-2.333h-.059a5.376,5.376,0,0,1-4.714,2.651c-2.245,0-4.928-1.24-4.928-6.26V569.92h2.6v7.913c0,2.716.828,4.546,3.187,4.546a3.646,3.646,0,0,0,3.659-3.685V569.92h2.6Z" transform="translate(-431.64 -536.479)" fill="#fff"/>
      <path id="Path_460" data-name="Path 460" d="M633.268,556v4.1h3.721v1.977h-3.721v7.707c0,1.767.5,2.775,1.947,2.775a5.8,5.8,0,0,0,1.505-.177l.118,1.948a6.366,6.366,0,0,1-2.3.353,3.593,3.593,0,0,1-2.8-1.093c-.739-.769-1-2.036-1-3.721v-7.8H628.51V560.1h2.207v-3.426Z" transform="translate(-466.867 -526.66)" fill="#fff"/>
      <path id="Path_461" data-name="Path 461" d="M669.3,552.4a1.609,1.609,0,1,1-3.217,0,1.582,1.582,0,0,1,1.623-1.623A1.541,1.541,0,0,1,669.3,552.4ZM666.4,570.7V556.416H669V570.7Z" transform="translate(-493.367 -522.975)" fill="#fff"/>
      <path id="Path_462" data-name="Path 462" d="M701.114,576.135c0,5.285-3.662,7.589-7.115,7.589-3.868,0-6.85-2.834-6.85-7.365,0-4.781,3.129-7.589,7.085-7.589C698.339,568.785,701.114,571.766,701.114,576.135Zm-11.336.147c0,3.129,1.8,5.491,4.34,5.491,2.48,0,4.339-2.333,4.339-5.55,0-2.422-1.211-5.492-4.281-5.492S689.778,573.566,689.778,576.282Z" transform="translate(-508.231 -535.668)" fill="#fff"/>
      <path id="Path_463" data-name="Path 463" d="M745.4,572.944c0-1.473-.029-2.687-.118-3.868h2.3l.148,2.357h.059a5.255,5.255,0,0,1,4.714-2.687c1.977,0,5.049,1.178,5.049,6.081v8.544h-2.6v-8.249c0-2.3-.857-4.222-3.306-4.222a3.691,3.691,0,0,0-3.482,2.651,3.732,3.732,0,0,0-.177,1.211v8.591h-2.6Z" transform="translate(-549.236 -535.65)" fill="#fff"/>
      <path id="Path_464" data-name="Path 464" d="M798.545,580.767a6.809,6.809,0,0,0,3.423,1.034c1.888,0,2.775-.946,2.775-2.127,0-1.24-.739-1.918-2.651-2.628-2.569-.916-3.78-2.334-3.78-4.045,0-2.3,1.859-4.192,4.929-4.192a7.132,7.132,0,0,1,3.514.884l-.648,1.888a5.566,5.566,0,0,0-2.923-.828c-1.535,0-2.392.884-2.392,1.947,0,1.178.857,1.712,2.716,2.422,2.48.946,3.75,2.186,3.75,4.31,0,2.51-1.948,4.281-5.344,4.281a8.149,8.149,0,0,1-4.015-.976Z" transform="translate(-586.353 -535.695)" fill="#fff"/>
      <path id="Path_465" data-name="Path 465" d="M448.909,644.065a14.728,14.728,0,0,1,2.716-.227,4.541,4.541,0,0,1,3.173.884,2.731,2.731,0,0,1,.863,2.083,2.881,2.881,0,0,1-2.062,2.8v.05a2.743,2.743,0,0,1,1.611,2.213,17.76,17.76,0,0,0,.846,3.011h-1.473a13.725,13.725,0,0,1-.734-2.619c-.327-1.514-.91-2.083-2.2-2.133h-1.335v4.752H448.9Zm1.417,5.008h1.45c1.514,0,2.475-.831,2.475-2.083,0-1.417-1.025-2.033-2.522-2.063a5.847,5.847,0,0,0-1.4.13Z" transform="translate(-340.172 -588.62)" fill="#fff"/>
      <path id="Path_466" data-name="Path 466" d="M478.137,658.378a2.524,2.524,0,0,0,2.7,2.734,5.175,5.175,0,0,0,2.18-.406l.245,1.025a6.379,6.379,0,0,1-2.619.489,3.658,3.658,0,0,1-3.874-3.971c0-2.377,1.4-4.248,3.694-4.248,2.572,0,3.241,2.263,3.241,3.709a5.334,5.334,0,0,1-.05.666Zm4.2-1.025a2.039,2.039,0,0,0-1.986-2.327,2.374,2.374,0,0,0-2.2,2.327Z" transform="translate(-359.831 -595.788)" fill="#fff"/>
      <path id="Path_467" data-name="Path 467" d="M504.821,660.569a3.758,3.758,0,0,0,1.888.569c1.043,0,1.529-.522,1.529-1.178s-.407-1.058-1.473-1.45c-1.417-.5-2.083-1.284-2.083-2.23a2.429,2.429,0,0,1,2.719-2.31,3.934,3.934,0,0,1,1.935.489l-.359,1.043a3.068,3.068,0,0,0-1.612-.457c-.845,0-1.317.489-1.317,1.076,0,.651.472.943,1.5,1.334,1.367.522,2.062,1.205,2.062,2.378,0,1.385-1.075,2.357-2.946,2.357a4.488,4.488,0,0,1-2.212-.536Z" transform="translate(-379.356 -595.767)" fill="#fff"/>
      <path id="Path_468" data-name="Path 468" d="M534.713,660.337c0,.813.018,1.529.065,2.148h-1.27l-.083-1.284h-.033a2.964,2.964,0,0,1-2.6,1.473c-1.237,0-2.719-.684-2.719-3.45V654.61H529.5v4.36c0,1.5.457,2.507,1.768,2.507a2.063,2.063,0,0,0,1.889-1.3,2.1,2.1,0,0,0,.13-.734V654.61h1.432Z" transform="translate(-396.017 -596.218)" fill="#fff"/>
      <path id="Path_469" data-name="Path 469" d="M558.68,642.12h1.432v11.555H558.68Z" transform="translate(-417.61 -587.408)" fill="#fff"/>
      <path id="Path_470" data-name="Path 470" d="M571.3,646.93v2.262h2.062v1.09H571.3v4.248c0,.975.277,1.529,1.075,1.529a3.185,3.185,0,0,0,.831-.1l.065,1.075a3.494,3.494,0,0,1-1.27.195,1.984,1.984,0,0,1-1.547-.589,2.934,2.934,0,0,1-.554-2.062v-4.3h-1.22v-1.09h1.22V647.3Z" transform="translate(-424.664 -590.801)" fill="#fff"/>
      <path id="Path_471" data-name="Path 471" d="M588.441,660.569a3.756,3.756,0,0,0,1.888.569c1.043,0,1.529-.522,1.529-1.178s-.406-1.058-1.473-1.45c-1.417-.5-2.083-1.284-2.083-2.23a2.429,2.429,0,0,1,2.719-2.31,3.936,3.936,0,0,1,1.936.489L592.6,655.5a3.069,3.069,0,0,0-1.612-.457c-.845,0-1.317.489-1.317,1.076,0,.651.471.943,1.5,1.334,1.367.522,2.062,1.205,2.062,2.378,0,1.385-1.075,2.357-2.946,2.357a4.488,4.488,0,0,1-2.213-.536Z" transform="translate(-438.341 -595.767)" fill="#fff"/>
      <path id="Path_472" data-name="Path 472" d="M623.425,656.3c0-.813-.018-1.473-.065-2.133h1.252l.065,1.27h.05a2.718,2.718,0,0,1,2.475-1.449,2.331,2.331,0,0,1,2.23,1.579h.032a3.242,3.242,0,0,1,.884-1.025,2.688,2.688,0,0,1,1.744-.551c1.043,0,2.587.683,2.587,3.417v4.637H633.27v-4.458c0-1.514-.554-2.425-1.709-2.425a1.853,1.853,0,0,0-1.694,1.3,2.372,2.372,0,0,0-.115.716v4.867h-1.4v-4.714c0-1.252-.554-2.165-1.644-2.165a2.139,2.139,0,0,0-1.883,2.133v4.752h-1.4Z" transform="translate(-463.234 -595.779)" fill="#fff"/>
      <path id="Path_473" data-name="Path 473" d="M672.522,662.075l-.115-.993h-.05a2.945,2.945,0,0,1-2.41,1.178A2.243,2.243,0,0,1,667.54,660c0-1.9,1.691-2.946,4.735-2.929v-.162a1.625,1.625,0,0,0-1.791-1.824,3.923,3.923,0,0,0-2.062.589l-.327-.943a4.887,4.887,0,0,1,2.587-.7c2.41,0,2.993,1.644,2.993,3.223V660.2a11.084,11.084,0,0,0,.13,1.888Zm-.212-4.018c-1.562-.033-3.335.244-3.335,1.767a1.268,1.268,0,0,0,1.349,1.367,1.96,1.96,0,0,0,1.9-1.317,1.5,1.5,0,0,0,.082-.457Z" transform="translate(-494.398 -595.808)" fill="#fff"/>
      <path id="Path_474" data-name="Path 474" d="M695.622,646.93v2.262h2.062v1.09h-2.062v4.248c0,.975.276,1.529,1.075,1.529a3.186,3.186,0,0,0,.831-.1l.065,1.075a3.492,3.492,0,0,1-1.27.195,1.984,1.984,0,0,1-1.547-.589,2.933,2.933,0,0,1-.554-2.062v-4.3H693v-1.09h1.22V647.3Z" transform="translate(-512.358 -590.801)" fill="#fff"/>
      <path id="Path_475" data-name="Path 475" d="M713.909,646.93v2.262h2.062v1.09h-2.062v4.248c0,.975.277,1.529,1.075,1.529a3.185,3.185,0,0,0,.831-.1l.065,1.075a3.491,3.491,0,0,1-1.27.195,1.985,1.985,0,0,1-1.547-.589,2.934,2.934,0,0,1-.554-2.062v-4.3H711.29v-1.09h1.219V647.3Z" transform="translate(-525.259 -590.801)" fill="#fff"/>
      <path id="Path_476" data-name="Path 476" d="M731.727,658.378a2.524,2.524,0,0,0,2.7,2.734,5.18,5.18,0,0,0,2.18-.406l.244,1.025a6.379,6.379,0,0,1-2.619.489,3.658,3.658,0,0,1-3.874-3.971c0-2.377,1.4-4.248,3.691-4.248,2.572,0,3.241,2.263,3.241,3.709a5.423,5.423,0,0,1-.05.666Zm4.2-1.025a2.039,2.039,0,0,0-1.986-2.327,2.374,2.374,0,0,0-2.2,2.327Z" transform="translate(-538.711 -595.788)" fill="#fff"/>
      <path id="Path_477" data-name="Path 477" d="M759.845,656.636c0-.928-.018-1.726-.065-2.457h1.243l.05,1.547h.065a2.366,2.366,0,0,1,2.18-1.727,1.568,1.568,0,0,1,.407.05V655.4a2.131,2.131,0,0,0-.489-.05,2.011,2.011,0,0,0-1.921,1.838,4.067,4.067,0,0,0-.065.666v4.2h-1.405Z" transform="translate(-559.464 -595.788)" fill="#fff"/>
    </g>
  </g>
</svg>
